<?xml version="1.0"?>
<svg width="128" height="128" xmlns="http://www.w3.org/2000/svg" xmlns:svg="http://www.w3.org/2000/svg" xmlns:xlink="http://www.w3.org/1999/xlink" version="1.0">
 <metadata id="metadata87">image/svg+xmlWikipedia&#x27;s WSTyxnoneWikipediafavicon2007-06-26GFDLW de WikipédiaInkscape</metadata>

 <g class="layer">
  <title>Layer 1</title>
  <g id="g2036">
   <g id="svg_3">
    <path d="m98.46,20.91l0,2.34c-2.95,0.55 -5.19,1.52 -6.71,2.9c-2.17,2.06 -4.73,5.22 -6.42,9.46l-34.24,72.8l-2.27,0l-34.36,-73.75c-1.6,-3.79 -3.78,-6.1 -4.44,-6.94c-1.03,-1.3 -2.28,-2.32 -3.78,-3.06c-1.5,-0.74 -3.52,-1.21 -6.06,-1.42l0,-2.34l33.44,0l0,2.34c-3.86,0.37 -5.7,1.05 -6.85,2.02c-1.15,0.96 -1.72,2.2 -1.72,3.72c0,2.11 0.94,5.38 2.83,9.84l25.38,50.16l24.81,-49.53c1.94,-4.89 3.53,-8.27 3.53,-10.16c0,-1.22 -0.59,-2.39 -1.78,-3.5c-1.19,-1.11 -2.53,-1.9 -5.37,-2.37c-0.2,-0.04 -0.56,-0.1 -1.05,-0.19l0,-2.34l25.07,0z" fill="#005fbf" id="V1" stroke-width="1px"/>
    <path d="m127.91,20.91l0,2.34c-2.95,0.55 -5.19,1.52 -6.71,2.9c-2.17,2.06 -4.73,5.22 -6.42,9.46l-30.04,72.8l-2.28,0l-31.75,-73.75c-1.6,-3.79 -3.78,-6.1 -4.43,-6.94c-1.03,-1.3 -2.29,-2.32 -3.79,-3.06c-1.5,-0.74 -2.86,-1.21 -5.39,-1.42l0,-2.34l32.77,0l0,2.34c-3.85,0.37 -5.7,1.05 -6.85,2.02c-1.14,0.96 -1.72,2.2 -1.72,3.72c0,2.11 0.94,5.38 2.83,9.84l22.76,50.16l20.63,-49.53c1.93,-4.89 3.53,-8.27 3.53,-10.16c0,-1.22 -0.6,-2.39 -1.79,-3.5c-1.19,-1.11 -3.2,-1.9 -6.03,-2.37c-0.21,-0.04 -0.56,-0.1 -1.05,-0.19l0,-2.34l25.73,0z" fill="#005fbf" id="V2" stroke-width="1px"/>
   </g>
  </g>
  <image height="0" id="svg_2" width="0" x="-119" xlink:href="./images/logo.svg" y="-4.6"/>
  <image height="0" id="svg_1" width="0" x="20" xlink:href="./images/logo.svg" y="22.4"/>
 </g>
</svg>